<?xml version="1.0" encoding="iso-8859-1"?>
<!-- Generator: Adobe Illustrator 16.0.0, SVG Export Plug-In . SVG Version: 6.00 Build 0)  -->
<!DOCTYPE svg PUBLIC "-//W3C//DTD SVG 1.1//EN" "http://www.w3.org/Graphics/SVG/1.1/DTD/svg11.dtd">
<svg version="1.1" id="Capa_1" xmlns="http://www.w3.org/2000/svg" xmlns:xlink="http://www.w3.org/1999/xlink" x="0px" y="0px"
	 fill="cornflowerblue" width="459px" height="459px" viewBox="0 0 459 459" style="enable-background:new 0 0 459 459;" xml:space="preserve">
<g>
	<g>
		<path d="M167.344,0v28.688h-28.688V306h181.688V28.688h-28.688V0H167.344z M301.219,267.75H157.781v-19.125h143.438V267.75z
			 M301.219,239.062H157.781v-19.125h143.438V239.062z M301.219,210.375H157.781V191.25h143.438V210.375z M301.219,181.688H157.781
			v-19.125h143.438V181.688z M301.219,153H157.781v-19.125h143.438V153z M301.219,124.312H157.781v-19.125h143.438V124.312z
			 M301.219,95.625H157.781V76.5h143.438V95.625z M301.219,47.812v19.125H157.781V47.812H301.219z"/>
		<path d="M329.906,439.875V315.562h-9.562H138.656h-9.562v124.312h-9.562h-19.125V459h258.188v-19.125h-19.125H329.906z
			 M148.219,353.812v-9.562h162.562v95.625h-9.562v-86.062H157.781v86.062h-9.562V353.812z M224.719,439.875h-47.812V382.5h47.812
			V439.875z M234.281,439.875V382.5h47.812v57.375H234.281z"/>
	</g>
</g>
<g>
</g>
<g>
</g>
<g>
</g>
<g>
</g>
<g>
</g>
<g>
</g>
<g>
</g>
<g>
</g>
<g>
</g>
<g>
</g>
<g>
</g>
<g>
</g>
<g>
</g>
<g>
</g>
<g>
</g>
</svg>
